<?xml version="1.0" standalone="no"?>
<!DOCTYPE svg PUBLIC "-//W3C//DTD SVG 20010904//EN"
 "http://www.w3.org/TR/2001/REC-SVG-20010904/DTD/svg10.dtd">
<svg version="1.0" xmlns="http://www.w3.org/2000/svg"
 width="888.000000pt" height="750.000000pt" viewBox="0 0 888.000000 750.000000"
 preserveAspectRatio="xMidYMid meet">
<metadata>
Created by potrace 1.10, written by Peter Selinger 2001-2011
</metadata>
<g transform="translate(0.000000,750.000000) scale(0.100000,-0.100000)"
fill="white" stroke="none">
<path d="M6375 7381 c-116 -53 -174 -182 -126 -286 53 -116 182 -174 286 -126
116 53 174 182 126 286 -37 82 -126 145 -206 145 -22 0 -58 -9 -80 -19z m107
-178 c23 -21 23 -36 -3 -59 -15 -13 -24 -16 -36 -8 -32 20 -38 41 -19 63 23
25 34 26 58 4z"/>
<path d="M5620 6815 c-146 -73 -512 -255 -815 -404 -302 -150 -557 -276 -565
-282 -8 -5 -22 -12 -30 -15 -8 -3 -22 -10 -30 -15 -8 -5 -22 -12 -30 -15 -8
-3 -22 -10 -30 -15 -8 -5 -22 -12 -30 -15 -8 -3 -22 -10 -30 -15 -8 -5 -22
-12 -30 -15 -8 -3 -22 -10 -30 -15 -8 -5 -22 -12 -30 -15 -8 -3 -22 -10 -30
-15 -8 -5 -22 -12 -30 -15 -8 -3 -22 -10 -30 -15 -8 -5 -22 -12 -30 -15 -8 -3
-22 -10 -30 -15 -8 -5 -22 -12 -30 -15 -8 -3 -22 -10 -30 -15 -8 -5 -22 -12
-30 -15 -8 -3 -22 -10 -30 -15 -8 -5 -22 -12 -30 -15 -8 -3 -22 -10 -30 -15
-8 -5 -22 -12 -30 -15 -27 -10 -85 -36 -100 -45 -8 -5 -22 -12 -30 -15 -8 -3
-22 -10 -30 -15 -8 -5 -22 -12 -30 -15 -8 -3 -22 -10 -30 -15 -8 -5 -22 -12
-30 -15 -8 -3 -22 -10 -30 -15 -8 -5 -22 -12 -30 -15 -8 -3 -22 -10 -30 -15
-8 -5 -22 -12 -30 -15 -23 -10 -738 -363 -1346 -665 -298 -148 -546 -269 -552
-269 -5 0 -15 -7 -22 -15 -7 -8 -20 -15 -30 -15 -10 0 -23 -7 -30 -15 -7 -8
-20 -15 -30 -15 -10 0 -23 -7 -30 -15 -7 -8 -20 -15 -30 -15 -10 0 -23 -7 -30
-15 -7 -8 -20 -15 -30 -15 -10 0 -23 -7 -30 -15 -7 -8 -20 -15 -30 -15 -10 0
-23 -7 -30 -15 -7 -8 -20 -15 -30 -15 -10 0 -23 -7 -30 -15 -7 -8 -20 -15 -30
-15 -10 0 -23 -7 -30 -15 -7 -8 -20 -15 -30 -15 -10 0 -23 -7 -30 -15 -7 -8
-20 -15 -30 -15 -10 0 -23 -7 -30 -15 -7 -8 -20 -15 -30 -15 -10 0 -23 -7 -30
-15 -7 -8 -20 -15 -30 -15 -10 0 -23 -7 -30 -15 -7 -8 -23 -15 -35 -15 -12 0
-28 -7 -35 -15 -7 -8 -20 -15 -30 -15 -10 0 -23 -7 -30 -15 -7 -8 -20 -15 -30
-15 -10 0 -23 -7 -30 -15 -7 -8 -20 -15 -30 -15 -10 0 -23 -7 -30 -15 -7 -8
-20 -15 -30 -15 -10 0 -23 -7 -30 -15 -7 -8 -20 -15 -30 -15 -10 0 -23 -7 -30
-15 -7 -8 -18 -15 -24 -15 -7 0 -50 -20 -96 -43 -81 -42 -85 -46 -92 -83 -8
-48 1 -104 44 -284 6 -25 14 -63 18 -85 4 -22 13 -62 20 -90 6 -27 18 -75 25
-105 7 -30 18 -75 25 -100 6 -25 15 -63 20 -85 4 -22 13 -56 20 -75 23 -64 38
-115 45 -147 4 -18 11 -35 16 -38 5 -4 9 -17 9 -30 0 -13 7 -41 16 -62 9 -21
22 -53 30 -71 7 -18 20 -48 28 -67 9 -20 22 -51 30 -70 34 -78 49 -111 57
-125 5 -8 14 -24 19 -35 6 -11 19 -33 30 -50 11 -16 23 -37 27 -45 10 -23 90
-127 151 -197 59 -68 250 -219 302 -239 8 -3 22 -10 30 -15 8 -5 22 -12 30
-15 8 -3 26 -11 40 -16 55 -24 126 -47 146 -48 12 0 39 -8 60 -17 56 -25 555
-25 657 0 38 10 82 17 98 17 30 0 115 18 215 46 28 8 62 14 75 14 13 0 44 6
69 14 53 17 120 34 175 46 22 4 54 12 70 18 17 6 57 18 90 27 107 29 169 47
210 60 22 6 67 20 100 30 33 9 78 23 100 31 23 8 47 14 54 14 7 0 27 6 44 14
30 12 62 22 160 47 21 5 45 13 55 18 9 5 37 14 62 20 44 11 93 26 195 57 28 8
66 19 85 24 34 8 55 14 130 40 19 7 53 15 75 19 22 4 56 12 75 19 19 6 64 18
100 27 63 16 115 29 223 59 28 8 88 22 132 31 44 9 105 23 135 30 30 8 100 21
155 30 55 9 123 21 150 26 28 6 91 15 140 19 50 5 117 14 150 19 103 16 489
13 585 -4 47 -8 101 -15 120 -15 32 0 103 -14 215 -41 22 -6 58 -14 80 -18 23
-4 47 -11 55 -16 7 -4 30 -12 49 -16 40 -8 87 -24 226 -76 66 -25 229 -98 255
-114 8 -5 21 -11 28 -14 30 -12 40 -17 97 -50 33 -18 80 -44 105 -57 25 -13
98 -59 163 -103 65 -44 126 -84 135 -90 9 -5 21 -15 27 -21 5 -6 26 -20 45
-30 19 -11 39 -24 45 -30 20 -21 93 -74 103 -74 6 0 12 -4 14 -9 5 -13 125
-111 136 -111 6 0 12 -4 14 -9 4 -11 123 -111 132 -111 4 0 17 -11 29 -24 12
-13 60 -56 107 -95 47 -40 102 -88 122 -107 21 -18 88 -79 150 -135 62 -56
134 -121 161 -145 31 -29 50 -55 54 -76 3 -18 11 -36 17 -40 15 -10 148 -10
163 0 7 4 12 21 12 37 0 29 5 308 17 950 3 176 8 361 10 410 4 87 7 241 20
1000 4 193 8 382 10 420 1 39 5 216 8 395 16 920 18 987 31 1072 6 39 5 49 -9
54 -9 3 -16 13 -16 20 0 19 -41 74 -54 74 -6 0 -58 -23 -116 -51 -58 -28 -184
-89 -280 -136 -96 -46 -182 -88 -190 -94 -8 -5 -22 -12 -30 -15 -8 -3 -22 -10
-30 -15 -8 -5 -22 -12 -30 -15 -8 -3 -22 -10 -30 -15 -8 -5 -22 -12 -30 -15
-8 -3 -22 -10 -30 -15 -8 -5 -22 -12 -30 -15 -27 -10 -85 -36 -100 -45 -8 -5
-22 -12 -30 -15 -38 -16 -630 -302 -650 -315 -8 -5 -22 -12 -30 -15 -8 -3 -22
-10 -30 -15 -8 -5 -22 -12 -30 -15 -8 -3 -22 -10 -30 -15 -8 -5 -22 -12 -30
-15 -27 -10 -85 -36 -100 -45 -8 -5 -22 -12 -30 -15 -20 -9 -248 -118 -456
-220 -94 -46 -176 -84 -181 -84 -6 0 -16 -7 -23 -15 -7 -8 -20 -15 -30 -15
-10 0 -23 -7 -30 -15 -7 -8 -20 -15 -30 -15 -10 0 -23 -7 -30 -15 -7 -8 -19
-15 -28 -15 -8 0 -23 -6 -31 -14 -15 -13 -41 -20 -68 -17 -9 1 -11 121 -7 529
2 290 6 806 9 1147 3 341 8 707 12 814 6 207 6 210 -43 211 -12 0 -27 7 -34
15 -7 8 -20 15 -29 14 -9 -1 -135 -61 -281 -134z m201 -354 c-1 -129 -4 -238
-7 -242 -2 -4 -4 -355 -4 -780 0 -426 -5 -918 -10 -1094 -7 -248 -7 -321 3
-327 7 -4 28 -8 48 -8 20 0 42 -7 49 -15 7 -8 19 -15 28 -15 8 0 97 40 196 89
100 49 188 91 196 95 8 3 22 10 30 15 8 5 22 12 30 15 8 3 22 10 30 15 8 5 22
12 30 15 8 3 22 10 30 15 8 5 22 12 30 15 8 3 22 10 30 14 15 9 71 35 100 46
8 3 22 10 30 15 8 5 74 37 145 71 72 35 211 102 310 150 99 48 187 90 195 94
8 3 22 10 30 15 8 5 22 12 30 15 8 3 22 10 30 15 8 5 22 12 30 15 8 3 22 10
30 14 15 9 71 35 100 46 8 3 22 10 30 15 41 23 79 41 89 41 5 0 22 -11 37 -25
15 -14 38 -28 51 -31 13 -4 23 -10 23 -14 0 -6 55 -45 156 -110 12 -8 102 -69
199 -135 97 -66 184 -124 193 -130 9 -5 33 -22 53 -37 20 -16 42 -28 48 -28 6
0 11 -5 11 -10 0 -6 10 -15 23 -20 26 -12 53 -29 78 -50 9 -8 29 -23 44 -34
l27 -18 -6 -157 c-3 -86 -8 -293 -11 -461 -3 -168 -7 -435 -10 -595 -3 -159
-9 -409 -15 -555 -5 -146 -9 -425 -10 -620 0 -195 -4 -361 -8 -368 -8 -12 -65
30 -132 99 -14 14 -65 61 -115 104 -49 43 -124 108 -165 146 -41 37 -97 85
-125 105 -27 21 -54 43 -60 50 -5 6 -39 33 -75 60 -36 26 -69 53 -75 60 -19
21 -214 164 -225 164 -5 0 -10 5 -10 10 0 6 -10 15 -22 20 -30 13 -55 30 -85
57 -14 12 -34 25 -44 28 -11 4 -34 20 -51 36 -18 16 -36 29 -40 29 -4 0 -27
14 -51 30 -25 17 -49 30 -55 30 -5 0 -15 7 -22 15 -7 8 -21 15 -31 15 -11 0
-19 4 -19 10 0 5 -24 21 -52 35 -29 15 -82 42 -118 61 -36 20 -103 51 -150 70
-47 20 -94 40 -104 46 -11 6 -31 14 -45 18 -14 5 -51 18 -81 30 -30 12 -68 25
-85 30 -16 5 -43 13 -60 19 -16 5 -59 17 -95 26 -36 9 -80 21 -99 27 -19 6
-60 14 -90 19 -31 4 -78 12 -106 18 -170 33 -315 44 -546 38 -219 -5 -298 -11
-474 -39 -38 -6 -95 -14 -125 -18 -63 -8 -164 -26 -230 -42 -25 -6 -66 -14
-93 -19 -26 -4 -62 -12 -80 -18 -50 -15 -118 -32 -162 -40 -22 -4 -56 -12 -75
-18 -55 -17 -190 -53 -270 -72 -97 -23 -166 -44 -174 -52 -6 -5 -20 -9 -33 -9
-12 0 -40 -6 -60 -14 -21 -7 -65 -21 -98 -30 -33 -10 -73 -22 -90 -28 -16 -5
-46 -14 -65 -18 -55 -14 -136 -38 -232 -71 -18 -6 -49 -15 -68 -19 -66 -17
-145 -40 -165 -49 -11 -5 -31 -12 -45 -14 -14 -3 -38 -10 -55 -15 -63 -22
-288 -85 -415 -117 -36 -9 -87 -22 -115 -30 -93 -24 -150 -38 -195 -45 -25 -4
-67 -12 -95 -18 -281 -60 -655 -72 -778 -26 -20 8 -50 14 -65 14 -15 0 -36 7
-46 15 -11 8 -30 15 -42 15 -12 0 -27 7 -34 15 -7 8 -18 15 -25 15 -19 0 -78
32 -88 47 -4 7 -13 13 -19 13 -27 0 -203 167 -243 230 -14 22 -33 49 -43 58
-16 17 -27 36 -89 157 -25 49 -46 96 -57 125 -3 8 -10 22 -15 30 -21 34 -89
218 -101 270 -4 19 -12 46 -17 60 -16 39 -50 163 -88 320 -7 30 -18 75 -25
100 -6 25 -15 65 -20 90 -17 94 -32 167 -44 210 -6 25 -10 52 -8 60 2 11 899
466 1012 514 8 3 22 10 30 15 8 5 22 12 30 15 8 3 22 10 30 15 8 5 22 12 30
15 8 3 22 10 30 15 8 5 22 12 30 15 8 3 22 10 30 15 8 5 22 12 30 15 8 3 22
10 30 15 8 5 22 12 30 15 8 3 22 10 30 15 8 5 22 12 30 15 8 3 22 10 30 15 8
5 22 12 30 15 8 3 22 10 30 15 8 5 22 12 30 15 8 3 22 10 30 15 8 5 22 12 30
15 8 3 22 10 30 15 8 5 22 12 30 15 8 3 22 10 30 14 15 9 71 35 100 46 8 3 22
10 30 15 8 5 22 12 30 15 8 3 22 10 30 15 8 5 22 12 30 15 8 3 22 10 30 15 8
5 22 12 30 15 8 3 22 10 30 15 8 5 22 12 30 15 8 3 22 10 30 15 8 6 195 98
415 207 220 108 644 317 941 465 298 148 546 269 552 269 5 0 15 7 22 15 7 8
20 15 30 15 10 0 23 7 30 15 7 8 20 15 30 15 10 0 23 7 30 15 7 8 20 15 30 15
10 0 23 7 30 15 7 8 20 15 30 15 10 0 23 7 30 15 7 8 20 15 30 15 10 0 23 7
30 15 7 8 20 15 30 15 10 0 23 7 30 15 7 8 20 15 30 15 10 0 23 7 30 15 7 8
20 15 30 15 10 0 23 7 30 15 7 8 20 15 30 15 10 0 23 7 30 15 7 8 20 15 30 15
10 0 23 7 30 15 7 8 20 15 30 15 10 0 23 7 30 15 7 8 23 15 35 15 12 0 28 7
35 15 7 8 20 15 30 15 10 0 23 7 30 15 7 8 20 15 30 15 10 0 23 7 30 15 7 8
20 15 30 15 10 0 23 7 30 15 7 8 20 15 30 15 10 0 23 7 30 15 7 8 20 15 30 15
10 0 23 7 30 15 7 8 18 15 24 15 6 0 128 59 271 130 143 72 266 129 274 127
12 -2 14 -42 12 -236z m2811 -1618 c-2 -236 -6 -430 -9 -433 -2 -2 -16 4 -31
14 -15 9 -39 23 -54 29 -16 6 -28 14 -28 18 0 5 -54 43 -155 109 -13 8 -103
69 -200 135 -97 66 -184 125 -193 130 -52 31 -72 49 -72 66 0 11 8 22 18 25 9
4 85 39 167 79 83 40 157 75 165 79 8 3 23 10 33 16 9 5 25 15 35 20 9 6 24
13 32 16 8 3 20 8 25 10 6 2 17 8 25 13 8 5 22 12 30 15 8 3 22 10 30 14 43
24 83 42 95 42 7 0 18 7 25 15 7 8 25 15 40 15 l27 0 -5 -427z"/>
<path d="M396 1109 c-64 -21 -145 -75 -174 -117 -34 -49 -46 -116 -33 -177 21
-92 73 -146 260 -271 95 -63 147 -109 179 -159 22 -35 26 -51 26 -128 1 -87 0
-89 -30 -117 -35 -31 -110 -47 -166 -35 -51 12 -104 50 -146 107 -35 47 -56
81 -110 184 -7 13 -17 22 -23 19 -12 -8 -12 -252 1 -276 6 -10 25 -26 42 -35
46 -24 181 -54 241 -54 55 0 160 27 214 54 47 25 111 93 133 144 35 78 19 205
-31 254 -9 10 -23 25 -31 35 -13 18 -132 113 -141 113 -10 0 -113 72 -160 112
-74 62 -98 106 -98 183 -1 75 16 105 73 131 52 23 136 15 182 -17 31 -22 106
-109 106 -123 0 -3 10 -28 22 -56 15 -34 28 -50 40 -50 16 0 18 11 18 114 0
94 -3 117 -17 134 -43 49 -264 68 -377 31z"/>
<path d="M5720 1099 c-11 -8 -12 -12 -2 -16 28 -11 41 -36 47 -95 9 -86 1
-839 -9 -860 -4 -9 -25 -19 -47 -23 -49 -8 -50 -21 -1 -29 47 -7 725 -8 746 0
17 7 22 40 31 193 5 96 4 103 -11 90 -10 -8 -23 -29 -31 -48 -18 -42 -99 -123
-149 -149 -75 -38 -252 -54 -304 -27 l-30 16 0 450 0 450 30 17 c36 20 37 28
8 36 -39 10 -262 6 -278 -5z"/>
<path d="M986 879 c-2 -8 -7 -52 -10 -99 -3 -47 -8 -100 -12 -117 -10 -48 11
-42 44 13 58 99 121 140 202 132 30 -3 35 -7 42 -38 8 -38 9 -579 1 -622 -5
-28 -43 -48 -89 -48 -13 0 -24 -4 -24 -10 0 -11 12 -12 210 -12 185 0 190 0
190 11 0 5 -17 12 -39 16 -28 4 -42 13 -50 31 -7 17 -11 124 -11 327 0 341 1
347 66 347 83 0 140 -50 194 -169 19 -43 28 -10 32 118 3 130 -4 151 -38 117
-9 -10 -33 -16 -62 -16 -519 -2 -605 0 -623 16 -15 14 -19 14 -23 3z"/>
<path d="M3915 814 c-14 -31 -25 -59 -25 -63 0 -3 -14 -35 -32 -71 -17 -36
-37 -78 -44 -95 -15 -36 -33 -79 -73 -168 -17 -37 -31 -69 -31 -72 0 -3 -19
-44 -41 -90 -51 -105 -87 -142 -146 -151 -89 -13 -38 -24 117 -24 88 0 160 4
160 8 0 4 -20 13 -45 20 -47 13 -50 18 -46 87 2 30 21 86 47 138 8 16 14 34
14 41 0 7 8 21 19 30 15 14 35 16 112 14 l93 -3 23 -45 c53 -106 103 -220 103
-235 0 -9 -13 -22 -30 -28 -16 -6 -30 -15 -30 -19 0 -7 282 -16 333 -10 36 4
34 19 -4 27 -16 4 -42 19 -57 33 -25 25 -101 170 -182 347 -18 39 -62 133
-100 210 -37 77 -70 148 -73 158 -12 33 -37 18 -62 -39z m18 -267 c16 -31 25
-61 22 -67 -8 -13 -122 -13 -130 0 -3 6 3 29 14 53 10 23 22 50 25 60 10 33
40 13 69 -46z"/>
<path d="M1824 851 c-9 -10 10 -21 37 -21 22 0 34 -8 49 -32 19 -31 20 -52 20
-335 0 -209 -4 -310 -12 -328 -8 -19 -22 -27 -50 -31 -44 -8 -51 -23 -10 -25
31 -1 286 -1 320 0 36 2 25 18 -17 25 -39 6 -40 7 -46 59 -3 28 -5 102 -3 162
l3 110 48 0 c43 0 50 -3 65 -30 9 -16 36 -63 59 -103 24 -40 43 -74 43 -76 0
-8 68 -105 89 -127 20 -22 32 -24 127 -27 112 -4 174 3 174 18 0 5 -12 12 -27
16 -48 10 -71 22 -113 61 -66 58 -218 266 -223 303 -1 10 16 31 42 51 56 43
78 73 95 130 26 85 -16 150 -119 186 -42 15 -88 18 -298 18 -137 0 -250 -2
-253 -4z m421 -46 c44 -18 55 -37 66 -112 7 -50 6 -81 -3 -117 -18 -68 -51
-91 -131 -91 l-62 0 -3 115 c-4 157 2 196 36 215 27 14 42 13 97 -10z"/>
<path d="M2757 854 c-12 -12 4 -24 34 -24 22 0 34 -8 49 -32 19 -31 20 -52 20
-335 0 -209 -4 -310 -12 -328 -8 -19 -22 -27 -50 -31 -21 -4 -38 -10 -38 -14
0 -15 82 -20 352 -20 320 0 308 -4 308 89 0 32 3 73 6 90 6 27 4 31 -15 31
-13 0 -25 -9 -30 -22 -14 -36 -78 -96 -131 -123 -39 -20 -64 -25 -124 -25
l-74 0 -11 31 c-6 18 -11 93 -11 167 l0 134 126 -3 c112 -4 128 -2 138 14 8
12 8 22 0 35 -10 15 -26 17 -138 13 l-126 -3 0 133 c0 116 3 138 20 167 18 29
24 32 68 32 79 0 171 -58 218 -138 14 -23 29 -40 35 -37 12 8 12 165 -1 185
-8 13 -55 15 -308 18 -164 2 -301 0 -305 -4z"/>
<path d="M4477 854 c-9 -10 2 -24 19 -24 18 0 74 -38 93 -64 12 -16 14 -64 13
-257 -1 -131 -7 -263 -13 -295 -11 -62 -35 -103 -59 -104 -8 0 -22 -5 -30 -10
-35 -23 20 -28 233 -21 28 1 20 17 -14 27 -18 5 -41 22 -53 37 -20 27 -21 40
-21 269 0 184 3 242 13 245 6 3 12 -3 12 -13 0 -9 12 -38 28 -63 15 -25 51
-93 81 -151 29 -58 75 -145 102 -195 27 -50 54 -103 60 -118 17 -44 47 -32 71
28 26 65 48 113 65 147 7 14 13 35 13 46 0 11 7 25 15 32 8 7 15 18 15 25 0
12 62 163 100 244 16 36 28 19 35 -51 11 -105 21 -423 15 -450 -4 -16 -17 -26
-43 -32 -44 -11 -49 -26 -9 -27 106 -4 271 -5 290 -1 29 5 28 18 -2 26 -15 4
-28 18 -35 38 -11 31 -35 411 -36 571 l0 79 35 19 c19 10 43 20 53 23 10 3 15
10 12 16 -8 13 -205 13 -238 1 -14 -6 -33 -28 -45 -53 -54 -114 -72 -156 -72
-163 0 -4 -13 -37 -30 -72 -16 -34 -30 -71 -30 -82 0 -10 -7 -24 -15 -31 -8
-7 -15 -18 -15 -25 0 -7 -10 -34 -21 -60 l-21 -48 -19 24 c-10 13 -37 60 -60
104 -42 82 -86 166 -153 290 -20 39 -50 82 -67 98 -29 26 -32 27 -147 27 -65
0 -122 -3 -125 -6z"/>
<path d="M6594 851 c-8 -8 8 -21 27 -21 11 0 31 -11 44 -25 l25 -24 0 -304 c0
-168 -3 -318 -6 -335 -5 -26 -12 -32 -45 -37 -42 -7 -53 -24 -16 -26 33 -1
277 -1 315 0 45 1 40 17 -8 25 -24 4 -43 14 -49 25 -7 12 -11 143 -11 336 -1
313 -1 318 21 341 12 13 36 24 53 26 17 2 29 7 26 13 -5 9 -367 15 -376 6z"/>
<path d="M7055 851 c-3 -5 15 -20 40 -32 24 -12 56 -34 70 -49 l26 -27 -1
-273 c0 -249 -2 -275 -20 -310 -14 -27 -30 -42 -55 -50 -36 -12 -45 -25 -22
-32 10 -3 164 -3 235 1 32 2 27 17 -8 24 -39 8 -67 37 -79 84 -15 55 -17 486
-3 491 13 4 22 -5 137 -132 44 -48 85 -93 91 -100 5 -6 56 -62 112 -124 229
-252 250 -274 262 -267 6 4 10 125 10 340 0 383 1 387 77 425 24 12 42 25 39
28 -9 8 -277 8 -282 0 -3 -4 10 -14 28 -22 48 -20 76 -51 82 -88 3 -18 8 -49
11 -70 7 -44 10 -337 3 -343 -5 -5 -57 45 -120 114 -48 52 -227 249 -276 303
-20 23 -53 59 -73 80 l-37 38 -120 0 c-67 0 -123 -4 -127 -9z"/>
<path d="M8057 854 c-11 -11 3 -24 26 -24 12 -1 32 -9 44 -19 23 -19 23 -20
23 -346 1 -226 -3 -331 -10 -340 -6 -8 -25 -17 -41 -20 -16 -4 -29 -10 -29
-15 0 -16 69 -20 334 -20 206 0 276 3 290 13 14 10 19 33 23 110 5 86 4 97
-11 97 -9 0 -16 -7 -16 -15 0 -22 -100 -120 -147 -144 -50 -25 -183 -30 -201
-8 -15 17 -18 307 -4 316 5 3 59 3 119 0 114 -7 143 0 143 31 0 30 -27 36
-144 30 -59 -3 -113 -2 -118 1 -6 4 -10 62 -10 149 2 170 6 180 85 180 73 0
179 -67 211 -135 10 -21 24 -35 36 -35 17 0 18 7 13 83 -3 45 -10 90 -15 100
-8 16 -33 17 -302 17 -161 0 -296 -3 -299 -6z"/>
</g>
</svg>
